<?xml version="1.0" standalone="no"?>
<!DOCTYPE svg PUBLIC "-//W3C//DTD SVG 20010904//EN"
 "http://www.w3.org/TR/2001/REC-SVG-20010904/DTD/svg10.dtd">
<svg version="1.0" xmlns="http://www.w3.org/2000/svg"
 width="792.000000pt" height="224.000000pt" viewBox="0 0 792.000000 224.000000"
 preserveAspectRatio="xMidYMid meet">

<g transform="translate(0.000000,224.000000) scale(0.100000,-0.100000)"
fill="#FFFFFF" stroke="none">
<path d="M758 1929 c-100 -62 -207 -126 -235 -143 l-53 -31 -2 -75 c-1 -41 -2
-90 -3 -108 0 -18 2 -38 6 -44 5 -7 128 63 338 192 182 111 331 206 331 209 0
9 -173 111 -187 111 -6 0 -94 -50 -195 -111z"/>
<path d="M2315 2010 c-14 -62 -3 -70 91 -70 l84 0 0 50 0 50 -84 0 -84 0 -7
-30z"/>
<path d="M2792 2030 c2 -6 172 -197 377 -425 l375 -415 93 0 93 0 -2 423 -3
422 -74 3 c-53 2 -77 -1 -82 -10 -5 -7 -9 -151 -9 -320 0 -185 -4 -308 -9
-308 -6 0 -126 125 -268 277 -142 153 -276 297 -299 320 l-41 43 -77 0 c-50 0
-76 -4 -74 -10z"/>
<path d="M3978 2034 c-5 -4 -8 -34 -8 -66 l0 -58 228 0 c298 0 377 -15 455
-89 58 -53 72 -95 72 -211 -1 -120 -16 -163 -79 -218 -70 -61 -140 -74 -423
-80 l-253 -4 0 -59 0 -59 278 0 c303 0 370 8 462 55 151 76 230 249 201 439
-25 172 -126 284 -298 332 -45 13 -121 18 -343 21 -157 3 -288 2 -292 -3z"/>
<path d="M844 1664 l-369 -225 -6 -107 c-3 -59 -3 -110 0 -114 6 -6 888 525
913 550 10 10 -11 27 -133 100 l-36 22 -369 -226z"/>
<path d="M2315 1767 c-3 -7 -4 -138 -3 -292 l3 -280 88 -3 87 -3 0 296 0 295
-85 0 c-60 0 -87 -4 -90 -13z"/>
<path d="M2762 1478 l3 -283 83 -3 82 -3 0 203 0 203 -76 83 c-42 45 -80 82
-85 82 -6 0 -8 -112 -7 -282z"/>
<path d="M1115 1523 c-187 -113 -407 -247 -490 -297 l-150 -91 -3 -118 c-2
-86 1 -117 9 -117 16 0 32 9 594 353 550 336 578 355 570 367 -8 13 -167 110
-180 110 -5 0 -163 -93 -350 -207z"/>
<path d="M300 1651 l-75 -48 0 -454 0 -453 75 -47 c41 -26 81 -48 88 -48 9 -1
12 115 12 549 0 434 -3 550 -12 549 -7 0 -47 -22 -88 -48z"/>
<path d="M1583 1488 l-83 -50 0 -424 0 -425 33 17 c17 9 60 35 95 56 l62 40 0
419 c0 329 -3 419 -12 418 -7 0 -50 -23 -95 -51z"/>
<path d="M1323 1328 l-83 -51 0 -424 c0 -232 2 -423 4 -423 2 0 45 25 95 56
l91 56 0 419 c0 329 -3 419 -12 419 -7 -1 -50 -24 -95 -52z"/>
<path d="M1080 1180 c-41 -27 -81 -53 -87 -60 -18 -15 -19 -840 -2 -840 6 0
49 24 95 52 l84 53 0 423 c0 232 -3 422 -7 421 -5 0 -42 -22 -83 -49z"/>
<path d="M816 1020 c-43 -27 -83 -55 -87 -62 -11 -16 -12 -549 -1 -563 7 -10
113 -79 160 -104 l22 -12 0 396 c0 217 -3 395 -7 394 -5 0 -44 -22 -87 -49z"/>
<path d="M2692 1019 c-219 -37 -366 -155 -414 -332 -19 -71 -11 -78 79 -75
l77 3 12 47 c25 99 116 190 229 228 33 12 99 24 147 27 154 10 284 -30 356
-113 l40 -44 91 0 c50 0 91 4 91 8 0 4 -15 32 -32 62 -81 134 -251 200 -508
198 -63 0 -139 -4 -168 -9z"/>
<path d="M3640 966 l0 -54 273 -4 c267 -3 273 -3 322 -28 118 -60 119 -198 0
-260 -48 -25 -54 -25 -320 -30 l-270 -5 -3 -207 -2 -208 85 0 84 0 3 152 3
153 151 3 152 3 109 -153 109 -153 92 -3 c51 -1 92 0 92 3 0 3 -52 71 -117
153 -64 81 -120 153 -126 159 -7 10 0 17 24 27 61 26 118 75 149 128 28 49 31
59 28 130 -3 67 -7 81 -34 119 -17 24 -54 56 -81 71 -83 47 -173 58 -464 58
l-259 0 0 -54z"/>
<path d="M5002 1008 c-13 -17 -392 -818 -392 -829 0 -5 41 -9 90 -9 l91 0 18
43 c148 335 312 692 320 692 11 0 47 -73 241 -477 l123 -258 98 0 c55 0 99 2
99 5 0 3 -59 118 -131 257 -72 139 -167 323 -211 408 -44 85 -85 161 -91 168
-6 8 -45 12 -127 12 -82 0 -121 -4 -128 -12z"/>
<path d="M5850 956 l0 -66 243 0 c170 0 257 -4 292 -14 157 -41 218 -120 219
-281 1 -79 -2 -97 -27 -146 -17 -37 -41 -66 -67 -84 -79 -55 -104 -59 -390
-65 l-265 -5 -3 -63 -3 -62 265 0 c292 0 377 10 466 55 77 39 136 99 172 174
28 58 33 78 36 168 3 83 0 115 -17 172 -37 122 -127 208 -264 254 -56 19 -92
21 -359 25 l-298 4 0 -66z"/>
<path d="M6992 958 l3 -63 405 0 405 0 0 60 0 60 -408 3 -408 2 3 -62z"/>
<path d="M563 863 l-93 -56 0 -131 0 -131 93 -56 92 -57 3 118 c1 66 1 175 0
244 l-3 126 -92 -57z"/>
<path d="M6990 595 l0 -55 411 0 410 0 -3 53 -3 52 -407 3 -408 2 0 -55z"/>
<path d="M2840 560 l0 -40 191 0 c115 0 188 -4 184 -9 -3 -5 -141 -83 -306
-173 l-301 -163 111 -3 111 -3 205 111 c112 61 209 109 215 105 6 -4 10 -50
10 -111 l0 -104 75 0 75 0 0 215 0 215 -285 0 -285 0 0 -40z"/>
<path d="M6997 293 c-4 -3 -7 -33 -7 -65 l0 -58 410 0 410 0 0 59 c0 44 -4 60
-16 65 -21 8 -789 8 -797 -1z"/>
</g>
</svg>
